<svg width="24" height="24" viewBox="0 0 24 24" fill="none" xmlns="http://www.w3.org/2000/svg">
<path d="M12.5 17.6523L17.7574 21.8332C17.8695 21.9225 18.0047 21.9786 18.1475 21.995C18.2903 22.0114 18.4348 21.9875 18.5645 21.926C18.6942 21.8645 18.8038 21.7679 18.8809 21.6473C18.9579 21.5267 18.9992 21.3869 19 21.2441V3.76018C19 3.55857 19 3 19 3C19 3 18.4381 3.00001 18.2353 3.00001L6 3.04604C6 3.24406 6 3.24406 6 3.35994C6 3.75084 6 3.47131 6 3.67292C6 3.87453 6 3.50679 6 4.01357C6 4.52035 6 4.03337 6 4.52035L6 21.2441C6.00081 21.3869 6.04208 21.5267 6.11912 21.6473C6.19616 21.7679 6.30578 21.8645 6.43551 21.926C6.56524 21.9875 6.70971 22.0114 6.85249 21.995C6.99527 21.9786 7.13045 21.9225 7.24265 21.8332L12.5 17.6523ZM7.52941 4.52035L17.4706 4.52035V19.6667L12.9779 16.0939C12.8438 15.9826 12.6747 15.9216 12.5 15.9216C12.3253 15.9216 12.1562 15.9826 12.0221 16.0939L7.52941 19.6667L7.52941 4.52035Z" fill="black"/>
</svg>
