<svg width="24" height="24" viewBox="0 0 24 24" fill="none" xmlns="http://www.w3.org/2000/svg">
<path d="M21.75 5.25C21.75 5.44891 21.671 5.63968 21.5303 5.78033C21.3897 5.92098 21.1989 6 21 6H19.5V7.5C19.5 7.69891 19.421 7.88968 19.2803 8.03033C19.1397 8.17098 18.9489 8.25 18.75 8.25C18.5511 8.25 18.3603 8.17098 18.2197 8.03033C18.079 7.88968 18 7.69891 18 7.5V6H16.5C16.3011 6 16.1103 5.92098 15.9697 5.78033C15.829 5.63968 15.75 5.44891 15.75 5.25C15.75 5.05109 15.829 4.86032 15.9697 4.71967C16.1103 4.57902 16.3011 4.5 16.5 4.5H18V3C18 2.80109 18.079 2.61032 18.2197 2.46967C18.3603 2.32902 18.5511 2.25 18.75 2.25C18.9489 2.25 19.1397 2.32902 19.2803 2.46967C19.421 2.61032 19.5 2.80109 19.5 3V4.5H21C21.1989 4.5 21.3897 4.57902 21.5303 4.71967C21.671 4.86032 21.75 5.05109 21.75 5.25ZM20.25 11.175V16.125C20.25 16.7925 20.0521 17.445 19.6812 18C19.3104 18.5551 18.7833 18.9876 18.1666 19.2431C17.5499 19.4985 16.8713 19.5654 16.2166 19.4352C15.5619 19.3049 14.9605 18.9835 14.4885 18.5115C14.0165 18.0395 13.6951 17.4381 13.5649 16.7834C13.4346 16.1287 13.5015 15.4501 13.7569 14.8334C14.0124 14.2167 14.4449 13.6896 15 13.3188C15.555 12.9479 16.2075 12.75 16.875 12.75C17.5434 12.7469 18.1971 12.9463 18.75 13.3219V11.175C18.75 10.9761 18.829 10.7853 18.9697 10.6447C19.1103 10.504 19.3011 10.425 19.5 10.425C19.6989 10.425 19.8897 10.504 20.0303 10.6447C20.171 10.7853 20.25 10.9761 20.25 11.175ZM18.75 16.125C18.75 15.7542 18.64 15.3916 18.434 15.0833C18.228 14.775 17.9351 14.5346 17.5925 14.3927C17.2499 14.2508 16.8729 14.2137 16.5092 14.286C16.1455 14.3584 15.8114 14.537 15.5492 14.7992C15.287 15.0614 15.1084 15.3955 15.036 15.7592C14.9637 16.1229 15.0008 16.4999 15.1427 16.8425C15.2846 17.1851 15.525 17.478 15.8333 17.684C16.1416 17.89 16.5042 18 16.875 18C17.3715 17.9975 17.847 17.7992 18.1981 17.4481C18.5492 17.097 18.7475 16.6215 18.75 16.125ZM8.25 11.0812V19.125C8.25 19.7925 8.05206 20.445 7.68121 21C7.31036 21.5551 6.78326 21.9876 6.16656 22.2431C5.54986 22.4985 4.87126 22.5654 4.21657 22.4352C3.56189 22.3049 2.96052 21.9835 2.48852 21.5115C2.01651 21.0395 1.69508 20.4381 1.56485 19.7834C1.43463 19.1287 1.50146 18.4501 1.75691 17.8334C2.01235 17.2167 2.44494 16.6896 2.99995 16.3188C3.55497 15.9479 4.20749 15.75 4.875 15.75C5.54341 15.7469 6.1971 15.9463 6.75 16.3219V6C6.74939 5.83161 6.80547 5.66791 6.90921 5.53526C7.01294 5.40262 7.1583 5.30874 7.32188 5.26875L12.6094 3.94687C12.7065 3.91764 12.8085 3.9084 12.9092 3.91971C13.01 3.93102 13.1074 3.96264 13.1956 4.01266C13.2838 4.06268 13.3609 4.13006 13.4223 4.21074C13.4838 4.29141 13.5282 4.3837 13.5529 4.48203C13.5777 4.58035 13.5822 4.68268 13.5663 4.78281C13.5504 4.88294 13.5143 4.97881 13.4603 5.06461C13.4063 5.15042 13.3354 5.22438 13.252 5.28202C13.1686 5.33967 13.0744 5.3798 12.975 5.4L8.25 6.58125V9.54375L14.7281 7.92188C14.8252 7.89264 14.9272 7.8834 15.028 7.89471C15.1287 7.90602 15.2262 7.93764 15.3144 7.98766C15.4025 8.03768 15.4797 8.10506 15.5411 8.18574C15.6025 8.26641 15.6469 8.3587 15.6717 8.45703C15.6964 8.55535 15.701 8.65768 15.685 8.75781C15.6691 8.85794 15.6331 8.95381 15.579 9.03961C15.525 9.12542 15.4542 9.19938 15.3708 9.25702C15.2873 9.31467 15.1931 9.3548 15.0938 9.375L8.25 11.0812ZM6.75 19.125C6.75 18.7542 6.64003 18.3916 6.43401 18.0833C6.22798 17.775 5.93514 17.5346 5.59253 17.3927C5.24992 17.2508 4.87292 17.2137 4.50921 17.286C4.14549 17.3584 3.8114 17.537 3.54918 17.7992C3.28695 18.0614 3.10838 18.3955 3.03603 18.7592C2.96368 19.1229 3.00081 19.4999 3.14273 19.8425C3.28464 20.1851 3.52497 20.478 3.83331 20.684C4.14165 20.89 4.50416 21 4.875 21C5.37152 20.9975 5.84701 20.7992 6.1981 20.4481C6.5492 20.097 6.74754 19.6215 6.75 19.125Z" fill="black"/>
</svg>
