<svg width="89" height="27" viewBox="0 0 89 27" fill="none" xmlns="http://www.w3.org/2000/svg">
<path d="M16.6328 22.502V26H3.7832V22.502H16.6328ZM5.01367 0.40625V26H0.601562V0.40625H5.01367Z" fill="black"/>
<path d="M39.291 12.5V13.9062C39.291 15.8398 39.0391 17.5742 38.5352 19.1094C38.0312 20.6445 37.3105 21.9512 36.373 23.0293C35.4473 24.1074 34.334 24.9336 33.0332 25.5078C31.7324 26.0703 30.291 26.3516 28.709 26.3516C27.1387 26.3516 25.7031 26.0703 24.4023 25.5078C23.1133 24.9336 21.9941 24.1074 21.0449 23.0293C20.0957 21.9512 19.3574 20.6445 18.8301 19.1094C18.3145 17.5742 18.0566 15.8398 18.0566 13.9062V12.5C18.0566 10.5664 18.3145 8.83789 18.8301 7.31445C19.3457 5.7793 20.0723 4.47266 21.0098 3.39453C21.959 2.30469 23.0781 1.47852 24.3672 0.916016C25.668 0.341797 27.1035 0.0546875 28.6738 0.0546875C30.2559 0.0546875 31.6973 0.341797 32.998 0.916016C34.2988 1.47852 35.418 2.30469 36.3555 3.39453C37.293 4.47266 38.0137 5.7793 38.5176 7.31445C39.0332 8.83789 39.291 10.5664 39.291 12.5ZM34.8789 13.9062V12.4648C34.8789 11.0352 34.7383 9.77539 34.457 8.68555C34.1875 7.58398 33.7832 6.66406 33.2441 5.92578C32.7168 5.17578 32.0664 4.61328 31.293 4.23828C30.5195 3.85156 29.6465 3.6582 28.6738 3.6582C27.7012 3.6582 26.834 3.85156 26.0723 4.23828C25.3105 4.61328 24.6602 5.17578 24.1211 5.92578C23.5938 6.66406 23.1895 7.58398 22.9082 8.68555C22.627 9.77539 22.4863 11.0352 22.4863 12.4648V13.9062C22.4863 15.3359 22.627 16.6016 22.9082 17.7031C23.1895 18.8047 23.5996 19.7363 24.1387 20.498C24.6895 21.248 25.3457 21.8164 26.1074 22.2031C26.8691 22.5781 27.7363 22.7656 28.709 22.7656C29.6934 22.7656 30.5664 22.5781 31.3281 22.2031C32.0898 21.8164 32.7344 21.248 33.2617 20.498C33.7891 19.7363 34.1875 18.8047 34.457 17.7031C34.7383 16.6016 34.8789 15.3359 34.8789 13.9062Z" fill="black"/>
<path d="M63.3555 12.9219V22.6953C62.9922 23.1758 62.4238 23.7031 61.6504 24.2773C60.8887 24.8398 59.875 25.3262 58.6094 25.7363C57.3438 26.1465 55.7676 26.3516 53.8809 26.3516C52.2754 26.3516 50.8047 26.082 49.4688 25.543C48.1328 24.9922 46.9785 24.1895 46.0059 23.1348C45.0449 22.0801 44.3008 20.7969 43.7734 19.2852C43.2461 17.7617 42.9824 16.0273 42.9824 14.082V12.3066C42.9824 10.373 43.2227 8.65039 43.7031 7.13867C44.1953 5.61523 44.8984 4.32617 45.8125 3.27148C46.7266 2.2168 47.8281 1.41992 49.1172 0.880859C50.418 0.330078 51.8887 0.0546875 53.5293 0.0546875C55.627 0.0546875 57.3613 0.40625 58.7324 1.10938C60.1152 1.80078 61.1816 2.76172 61.9316 3.99219C62.6816 5.22266 63.1562 6.62891 63.3555 8.21094H59.0312C58.8906 7.32031 58.6152 6.52344 58.2051 5.82031C57.8066 5.11719 57.2324 4.56641 56.4824 4.16797C55.7441 3.75781 54.7832 3.55273 53.5996 3.55273C52.5801 3.55273 51.6836 3.74609 50.9102 4.13281C50.1367 4.51953 49.4922 5.08789 48.9766 5.83789C48.4727 6.58789 48.0918 7.50195 47.834 8.58008C47.5762 9.6582 47.4473 10.8887 47.4473 12.2715V14.082C47.4473 15.4883 47.5938 16.7363 47.8867 17.8262C48.1914 18.916 48.625 19.8359 49.1875 20.5859C49.7617 21.3359 50.459 21.9043 51.2793 22.291C52.0996 22.666 53.0254 22.8535 54.0566 22.8535C55.0645 22.8535 55.8906 22.7715 56.5352 22.6074C57.1797 22.4316 57.6895 22.2266 58.0645 21.9922C58.4512 21.7461 58.75 21.5117 58.9609 21.2891V16.209H53.6348V12.9219H63.3555Z" fill="black"/>
<path d="M88.6504 12.5V13.9062C88.6504 15.8398 88.3984 17.5742 87.8945 19.1094C87.3906 20.6445 86.6699 21.9512 85.7324 23.0293C84.8066 24.1074 83.6934 24.9336 82.3926 25.5078C81.0918 26.0703 79.6504 26.3516 78.0684 26.3516C76.498 26.3516 75.0625 26.0703 73.7617 25.5078C72.4727 24.9336 71.3535 24.1074 70.4043 23.0293C69.4551 21.9512 68.7168 20.6445 68.1895 19.1094C67.6738 17.5742 67.416 15.8398 67.416 13.9062V12.5C67.416 10.5664 67.6738 8.83789 68.1895 7.31445C68.7051 5.7793 69.4316 4.47266 70.3691 3.39453C71.3184 2.30469 72.4375 1.47852 73.7266 0.916016C75.0273 0.341797 76.4629 0.0546875 78.0332 0.0546875C79.6152 0.0546875 81.0566 0.341797 82.3574 0.916016C83.6582 1.47852 84.7773 2.30469 85.7148 3.39453C86.6523 4.47266 87.373 5.7793 87.877 7.31445C88.3926 8.83789 88.6504 10.5664 88.6504 12.5ZM84.2383 13.9062V12.4648C84.2383 11.0352 84.0977 9.77539 83.8164 8.68555C83.5469 7.58398 83.1426 6.66406 82.6035 5.92578C82.0762 5.17578 81.4258 4.61328 80.6523 4.23828C79.8789 3.85156 79.0059 3.6582 78.0332 3.6582C77.0605 3.6582 76.1934 3.85156 75.4316 4.23828C74.6699 4.61328 74.0195 5.17578 73.4805 5.92578C72.9531 6.66406 72.5488 7.58398 72.2676 8.68555C71.9863 9.77539 71.8457 11.0352 71.8457 12.4648V13.9062C71.8457 15.3359 71.9863 16.6016 72.2676 17.7031C72.5488 18.8047 72.959 19.7363 73.498 20.498C74.0488 21.248 74.7051 21.8164 75.4668 22.2031C76.2285 22.5781 77.0957 22.7656 78.0684 22.7656C79.0527 22.7656 79.9258 22.5781 80.6875 22.2031C81.4492 21.8164 82.0938 21.248 82.6211 20.498C83.1484 19.7363 83.5469 18.8047 83.8164 17.7031C84.0977 16.6016 84.2383 15.3359 84.2383 13.9062Z" fill="black"/>
</svg>
