<svg xmlns="http://www.w3.org/2000/svg">

  <symbol id="message" viewBox="0 0 24 24">
    <path d="M21 11.5C21.0034 12.8199 20.6951 14.1219 20.1 15.3C19.3944 16.7118 18.3098 17.8992 16.9674 18.7293C15.6251 19.5594 14.0782 19.9994 12.5 20C11.1801 20.0035 9.87812 19.6951 8.7 19.1L3 21L4.9 15.3C4.30493 14.1219 3.99656 12.8199 4 11.5C4.00061 9.92179 4.44061 8.37488 5.27072 7.03258C6.10083 5.69028 7.28825 4.6056 8.7 3.90003C9.87812 3.30496 11.1801 2.99659 12.5 3.00003H13C15.0843 3.11502 17.053 3.99479 18.5291 5.47089C20.0052 6.94699 20.885 8.91568 21 11V11.5Z" stroke-width="2" stroke-linecap="round" stroke-linejoin="round"/>
  </symbol>

  <symbol id="settings" viewBox="0 0 24 24">
    <g clip-path="url(#clip0_196_589)">
    <path d="M12 15C13.6569 15 15 13.6569 15 12C15 10.3431 13.6569 9 12 9C10.3431 9 9 10.3431 9 12C9 13.6569 10.3431 15 12 15Z" stroke="black" stroke-width="2" stroke-linecap="round" stroke-linejoin="round"/>
    <path d="M19.4 15C19.2669 15.3016 19.2272 15.6362 19.286 15.9606C19.3448 16.285 19.4995 16.5843 19.73 16.82L19.79 16.88C19.976 17.0657 20.1235 17.2863 20.2241 17.5291C20.3248 17.7719 20.3766 18.0322 20.3766 18.295C20.3766 18.5578 20.3248 18.8181 20.2241 19.0609C20.1235 19.3037 19.976 19.5243 19.79 19.71C19.6043 19.896 19.3837 20.0435 19.1409 20.1441C18.8981 20.2448 18.6378 20.2966 18.375 20.2966C18.1122 20.2966 17.8519 20.2448 17.6091 20.1441C17.3663 20.0435 17.1457 19.896 16.96 19.71L16.9 19.65C16.6643 19.4195 16.365 19.2648 16.0406 19.206C15.7162 19.1472 15.3816 19.1869 15.08 19.32C14.7842 19.4468 14.532 19.6572 14.3543 19.9255C14.1766 20.1938 14.0813 20.5082 14.08 20.83V21C14.08 21.5304 13.8693 22.0391 13.4942 22.4142C13.1191 22.7893 12.6104 23 12.08 23C11.5496 23 11.0409 22.7893 10.6658 22.4142C10.2907 22.0391 10.08 21.5304 10.08 21V20.91C10.0723 20.579 9.96512 20.258 9.77251 19.9887C9.5799 19.7194 9.31074 19.5143 9 19.4C8.69838 19.2669 8.36381 19.2272 8.03941 19.286C7.71502 19.3448 7.41568 19.4995 7.18 19.73L7.12 19.79C6.93425 19.976 6.71368 20.1235 6.47088 20.2241C6.22808 20.3248 5.96783 20.3766 5.705 20.3766C5.44217 20.3766 5.18192 20.3248 4.93912 20.2241C4.69632 20.1235 4.47575 19.976 4.29 19.79C4.10405 19.6043 3.95653 19.3837 3.85588 19.1409C3.75523 18.8981 3.70343 18.6378 3.70343 18.375C3.70343 18.1122 3.75523 17.8519 3.85588 17.6091C3.95653 17.3663 4.10405 17.1457 4.29 16.96L4.35 16.9C4.58054 16.6643 4.73519 16.365 4.794 16.0406C4.85282 15.7162 4.81312 15.3816 4.68 15.08C4.55324 14.7842 4.34276 14.532 4.07447 14.3543C3.80618 14.1766 3.49179 14.0813 3.17 14.08H3C2.46957 14.08 1.96086 13.8693 1.58579 13.4942C1.21071 13.1191 1 12.6104 1 12.08C1 11.5496 1.21071 11.0409 1.58579 10.6658C1.96086 10.2907 2.46957 10.08 3 10.08H3.09C3.42099 10.0723 3.742 9.96512 4.0113 9.77251C4.28059 9.5799 4.48572 9.31074 4.6 9C4.73312 8.69838 4.77282 8.36381 4.714 8.03941C4.65519 7.71502 4.50054 7.41568 4.27 7.18L4.21 7.12C4.02405 6.93425 3.87653 6.71368 3.77588 6.47088C3.67523 6.22808 3.62343 5.96783 3.62343 5.705C3.62343 5.44217 3.67523 5.18192 3.77588 4.93912C3.87653 4.69632 4.02405 4.47575 4.21 4.29C4.39575 4.10405 4.61632 3.95653 4.85912 3.85588C5.10192 3.75523 5.36217 3.70343 5.625 3.70343C5.88783 3.70343 6.14808 3.75523 6.39088 3.85588C6.63368 3.95653 6.85425 4.10405 7.04 4.29L7.1 4.35C7.33568 4.58054 7.63502 4.73519 7.95941 4.794C8.28381 4.85282 8.61838 4.81312 8.92 4.68H9C9.29577 4.55324 9.54802 4.34276 9.72569 4.07447C9.90337 3.80618 9.99872 3.49179 10 3.17V3C10 2.46957 10.2107 1.96086 10.5858 1.58579C10.9609 1.21071 11.4696 1 12 1C12.5304 1 13.0391 1.21071 13.4142 1.58579C13.7893 1.96086 14 2.46957 14 3V3.09C14.0013 3.41179 14.0966 3.72618 14.2743 3.99447C14.452 4.26276 14.7042 4.47324 15 4.6C15.3016 4.73312 15.6362 4.77282 15.9606 4.714C16.285 4.65519 16.5843 4.50054 16.82 4.27L16.88 4.21C17.0657 4.02405 17.2863 3.87653 17.5291 3.77588C17.7719 3.67523 18.0322 3.62343 18.295 3.62343C18.5578 3.62343 18.8181 3.67523 19.0609 3.77588C19.3037 3.87653 19.5243 4.02405 19.71 4.21C19.896 4.39575 20.0435 4.61632 20.1441 4.85912C20.2448 5.10192 20.2966 5.36217 20.2966 5.625C20.2966 5.88783 20.2448 6.14808 20.1441 6.39088C20.0435 6.63368 19.896 6.85425 19.71 7.04L19.65 7.1C19.4195 7.33568 19.2648 7.63502 19.206 7.95941C19.1472 8.28381 19.1869 8.61838 19.32 8.92V9C19.4468 9.29577 19.6572 9.54802 19.9255 9.72569C20.1938 9.90337 20.5082 9.99872 20.83 10H21C21.5304 10 22.0391 10.2107 22.4142 10.5858C22.7893 10.9609 23 11.4696 23 12C23 12.5304 22.7893 13.0391 22.4142 13.4142C22.0391 13.7893 21.5304 14 21 14H20.91C20.5882 14.0013 20.2738 14.0966 20.0055 14.2743C19.7372 14.452 19.5268 14.7042 19.4 15Z" stroke="black" stroke-width="2" stroke-linecap="round" stroke-linejoin="round"/>
    </g>
    <defs>
    <clipPath id="clip0_196_589">
    <rect width="24" height="24" fill="white"/>
    </clipPath>
    </defs>
  </symbol>

  <symbol id="statistic" viewBox="0 0 24 24">
    <path d="M9 17H7V10H9V17ZM13 17H11V7H13V17ZM17 17H15V13H17V17ZM19 19H5V5H19V19ZM19 3H5C3.9 3 3 3.9 3 5V19C3 20.1 3.9 21 5 21H19C20.1 21 21 20.1 21 19V5C21 3.9 20.1 3 19 3Z" fill="black"/>
  </symbol>

  <symbol id="send" viewBox="0 0 24 24">
    <path d="M22 2L11 13" stroke="black" stroke-width="2" stroke-linecap="round" stroke-linejoin="round"/>
    <path d="M22 2L15 22L11 13L2 9L22 2Z" stroke="black" stroke-width="2" stroke-linecap="round" stroke-linejoin="round"/>
  </symbol>

  <symbol id="check" viewBox="0 0 24 24">
    <path d="M20 6L9 17L4 12" stroke="black" stroke-width="2" stroke-linecap="round" stroke-linejoin="round"/>
  </symbol>

  <symbol id="user-x" viewBox="0 0 24 24">
    <path d="M16 21V19C16 17.9391 15.5786 16.9217 14.8284 16.1716C14.0783 15.4214 13.0609 15 12 15H5C3.93913 15 2.92172 15.4214 2.17157 16.1716C1.42143 16.9217 1 17.9391 1 19V21" stroke="black" stroke-width="2" stroke-linecap="round" stroke-linejoin="round"/>
    <path d="M8.5 11C10.7091 11 12.5 9.20914 12.5 7C12.5 4.79086 10.7091 3 8.5 3C6.29086 3 4.5 4.79086 4.5 7C4.5 9.20914 6.29086 11 8.5 11Z" stroke="black" stroke-width="2" stroke-linecap="round" stroke-linejoin="round"/>
    <path d="M18 8L23 13" stroke="black" stroke-width="2" stroke-linecap="round" stroke-linejoin="round"/>
    <path d="M23 8L18 13" stroke="black" stroke-width="2" stroke-linecap="round" stroke-linejoin="round"/>
  </symbol>

  <symbol id="heart" viewBox="0 0 24 24">
    <path d="M20.8401 4.60987C20.3294 4.09888 19.7229 3.69352 19.0555 3.41696C18.388 3.14039 17.6726 2.99805 16.9501 2.99805C16.2276 2.99805 15.5122 3.14039 14.8448 3.41696C14.1773 3.69352 13.5709 4.09888 13.0601 4.60987L12.0001 5.66987L10.9401 4.60987C9.90843 3.57818 8.50915 2.99858 7.05012 2.99858C5.59109 2.99858 4.19181 3.57818 3.16012 4.60987C2.12843 5.64156 1.54883 7.04084 1.54883 8.49987C1.54883 9.95891 2.12843 11.3582 3.16012 12.3899L4.22012 13.4499L12.0001 21.2299L19.7801 13.4499L20.8401 12.3899C21.3511 11.8791 21.7565 11.2727 22.033 10.6052C22.3096 9.93777 22.4519 9.22236 22.4519 8.49987C22.4519 7.77738 22.3096 7.06198 22.033 6.39452C21.7565 5.72706 21.3511 5.12063 20.8401 4.60987Z" stroke-width="2" stroke-linecap="round" stroke-linejoin="round"/>
  </symbol>

  <symbol id="eye" viewBox="0 0 24 24">
    <path d="M1 12C1 12 5 4 12 4C19 4 23 12 23 12C23 12 19 20 12 20C5 20 1 12 1 12Z" stroke="#8F8F8F" stroke-width="2" stroke-linecap="round" stroke-linejoin="round"/>
    <path d="M12 15C13.6569 15 15 13.6569 15 12C15 10.3431 13.6569 9 12 9C10.3431 9 9 10.3431 9 12C9 13.6569 10.3431 15 12 15Z" stroke="#8F8F8F" stroke-width="2" stroke-linecap="round" stroke-linejoin="round"/>
  </symbol>

  <symbol id="eye-off" viewBox="0 0 24 24">
    <g clip-path="url(#clip0_201_1041)">
    <path d="M17.94 17.94C16.2306 19.243 14.1491 19.9649 12 20C5 20 1 12 1 12C2.24389 9.68192 3.96914 7.65663 6.06 6.06003M9.9 4.24002C10.5883 4.0789 11.2931 3.99836 12 4.00003C19 4.00003 23 12 23 12C22.393 13.1356 21.6691 14.2048 20.84 15.19M14.12 14.12C13.8454 14.4148 13.5141 14.6512 13.1462 14.8151C12.7782 14.9791 12.3809 15.0673 11.9781 15.0744C11.5753 15.0815 11.1752 15.0074 10.8016 14.8565C10.4281 14.7056 10.0887 14.4811 9.80385 14.1962C9.51897 13.9113 9.29439 13.572 9.14351 13.1984C8.99262 12.8249 8.91853 12.4247 8.92563 12.0219C8.93274 11.6191 9.02091 11.2219 9.18488 10.8539C9.34884 10.4859 9.58525 10.1547 9.88 9.88003" stroke="#A5A4A4" stroke-width="2" stroke-linecap="round" stroke-linejoin="round"/>
    <path d="M1 1L23 23" stroke="#A5A4A4" stroke-width="2" stroke-linecap="round" stroke-linejoin="round"/>
    </g>
    <defs>
    <clipPath id="clip0_201_1041">
    <rect width="24" height="24" fill="white"/>
    </clipPath>
    </defs>
  </symbol>

  <symbol id="stats" viewBox="0 0 24 24">
    <path d="M9 17H7V10H9V17ZM13 17H11V7H13V17ZM17 17H15V13H17V17ZM19 19H5V5H19V19ZM19 3H5C3.9 3 3 3.9 3 5V19C3 20.1 3.9 21 5 21H19C20.1 21 21 20.1 21 19V5C21 3.9 20.1 3 19 3Z" fill="#8F8F8F"/>
  </symbol>

  <symbol id="plus" viewBox="0 0 24 24">
    <path d="M12 22C17.5228 22 22 17.5228 22 12C22 6.47715 17.5228 2 12 2C6.47715 2 2 6.47715 2 12C2 17.5228 6.47715 22 12 22Z" stroke="black" stroke-width="2" stroke-linecap="round" stroke-linejoin="round"/>
    <path d="M12 8V16" stroke="black" stroke-width="2" stroke-linecap="round" stroke-linejoin="round"/>
    <path d="M8 12H16" stroke="black" stroke-width="2" stroke-linecap="round" stroke-linejoin="round"/>
  </symbol>

  <symbol id="photo" viewBox="0 0 24 24">
    <path d="M12 17.5C13.25 17.5 14.3127 17.0627 15.188 16.188C16.0627 15.3127 16.5 14.25 16.5 13C16.5 11.75 16.0627 10.6873 15.188 9.812C14.3127 8.93733 13.25 8.5 12 8.5C10.75 8.5 9.68733 8.93733 8.812 9.812C7.93733 10.6873 7.5 11.75 7.5 13C7.5 14.25 7.93733 15.3127 8.812 16.188C9.68733 17.0627 10.75 17.5 12 17.5ZM12 15.5C11.3 15.5 10.7083 15.2583 10.225 14.775C9.74167 14.2917 9.5 13.7 9.5 13C9.5 12.3 9.74167 11.7083 10.225 11.225C10.7083 10.7417 11.3 10.5 12 10.5C12.7 10.5 13.2917 10.7417 13.775 11.225C14.2583 11.7083 14.5 12.3 14.5 13C14.5 13.7 14.2583 14.2917 13.775 14.775C13.2917 15.2583 12.7 15.5 12 15.5ZM4 21C3.45 21 2.97933 20.8043 2.588 20.413C2.196 20.021 2 19.55 2 19V7C2 6.45 2.196 5.97933 2.588 5.588C2.97933 5.196 3.45 5 4 5H7.15L9 3H15L16.85 5H20C20.55 5 21.021 5.196 21.413 5.588C21.8043 5.97933 22 6.45 22 7V19C22 19.55 21.8043 20.021 21.413 20.413C21.021 20.8043 20.55 21 20 21H4ZM20 19V7H15.95L14.125 5H9.875L8.05 7H4V19H20Z" fill="black"/>
  </symbol>

  <symbol id="play" viewBox="0 0 24 24">
    <path d="M9.5 9.325V14.675C9.5 15.075 9.675 15.3667 10.025 15.55C10.375 15.7333 10.7167 15.7167 11.05 15.5L15.2 12.85C15.5167 12.6667 15.675 12.3833 15.675 12C15.675 11.6167 15.5167 11.3333 15.2 11.15L11.05 8.5C10.7167 8.28333 10.375 8.26667 10.025 8.45C9.675 8.63333 9.5 8.925 9.5 9.325ZM12 22C10.6167 22 9.31667 21.7373 8.1 21.212C6.88333 20.6873 5.825 19.975 4.925 19.075C4.025 18.175 3.31267 17.1167 2.788 15.9C2.26267 14.6833 2 13.3833 2 12C2 10.6167 2.26267 9.31667 2.788 8.1C3.31267 6.88333 4.025 5.825 4.925 4.925C5.825 4.025 6.88333 3.31233 8.1 2.787C9.31667 2.26233 10.6167 2 12 2C13.3833 2 14.6833 2.26233 15.9 2.787C17.1167 3.31233 18.175 4.025 19.075 4.925C19.975 5.825 20.6873 6.88333 21.212 8.1C21.7373 9.31667 22 10.6167 22 12C22 13.3833 21.7373 14.6833 21.212 15.9C20.6873 17.1167 19.975 18.175 19.075 19.075C18.175 19.975 17.1167 20.6873 15.9 21.212C14.6833 21.7373 13.3833 22 12 22ZM12 20C14.2167 20 16.1043 19.221 17.663 17.663C19.221 16.1043 20 14.2167 20 12C20 9.78333 19.221 7.89567 17.663 6.337C16.1043 4.779 14.2167 4 12 4C9.78333 4 7.896 4.779 6.338 6.337C4.77933 7.89567 4 9.78333 4 12C4 14.2167 4.77933 16.1043 6.338 17.663C7.896 19.221 9.78333 20 12 20Z" fill="black"/>
  </symbol>

  <symbol id="music" viewBox="0 0 24 24">
    <path d="M21.75 5.25C21.75 5.44891 21.671 5.63968 21.5303 5.78033C21.3897 5.92098 21.1989 6 21 6H19.5V7.5C19.5 7.69891 19.421 7.88968 19.2803 8.03033C19.1397 8.17098 18.9489 8.25 18.75 8.25C18.5511 8.25 18.3603 8.17098 18.2197 8.03033C18.079 7.88968 18 7.69891 18 7.5V6H16.5C16.3011 6 16.1103 5.92098 15.9697 5.78033C15.829 5.63968 15.75 5.44891 15.75 5.25C15.75 5.05109 15.829 4.86032 15.9697 4.71967C16.1103 4.57902 16.3011 4.5 16.5 4.5H18V3C18 2.80109 18.079 2.61032 18.2197 2.46967C18.3603 2.32902 18.5511 2.25 18.75 2.25C18.9489 2.25 19.1397 2.32902 19.2803 2.46967C19.421 2.61032 19.5 2.80109 19.5 3V4.5H21C21.1989 4.5 21.3897 4.57902 21.5303 4.71967C21.671 4.86032 21.75 5.05109 21.75 5.25ZM20.25 11.175V16.125C20.25 16.7925 20.0521 17.445 19.6812 18C19.3104 18.5551 18.7833 18.9876 18.1666 19.2431C17.5499 19.4985 16.8713 19.5654 16.2166 19.4352C15.5619 19.3049 14.9605 18.9835 14.4885 18.5115C14.0165 18.0395 13.6951 17.4381 13.5649 16.7834C13.4346 16.1287 13.5015 15.4501 13.7569 14.8334C14.0124 14.2167 14.4449 13.6896 15 13.3188C15.555 12.9479 16.2075 12.75 16.875 12.75C17.5434 12.7469 18.1971 12.9463 18.75 13.3219V11.175C18.75 10.9761 18.829 10.7853 18.9697 10.6447C19.1103 10.504 19.3011 10.425 19.5 10.425C19.6989 10.425 19.8897 10.504 20.0303 10.6447C20.171 10.7853 20.25 10.9761 20.25 11.175ZM18.75 16.125C18.75 15.7542 18.64 15.3916 18.434 15.0833C18.228 14.775 17.9351 14.5346 17.5925 14.3927C17.2499 14.2508 16.8729 14.2137 16.5092 14.286C16.1455 14.3584 15.8114 14.537 15.5492 14.7992C15.287 15.0614 15.1084 15.3955 15.036 15.7592C14.9637 16.1229 15.0008 16.4999 15.1427 16.8425C15.2846 17.1851 15.525 17.478 15.8333 17.684C16.1416 17.89 16.5042 18 16.875 18C17.3715 17.9975 17.847 17.7992 18.1981 17.4481C18.5492 17.097 18.7475 16.6215 18.75 16.125ZM8.25 11.0812V19.125C8.25 19.7925 8.05206 20.445 7.68121 21C7.31036 21.5551 6.78326 21.9876 6.16656 22.2431C5.54986 22.4985 4.87126 22.5654 4.21657 22.4352C3.56189 22.3049 2.96052 21.9835 2.48852 21.5115C2.01651 21.0395 1.69508 20.4381 1.56485 19.7834C1.43463 19.1287 1.50146 18.4501 1.75691 17.8334C2.01235 17.2167 2.44494 16.6896 2.99995 16.3188C3.55497 15.9479 4.20749 15.75 4.875 15.75C5.54341 15.7469 6.1971 15.9463 6.75 16.3219V6C6.74939 5.83161 6.80547 5.66791 6.90921 5.53526C7.01294 5.40262 7.1583 5.30874 7.32188 5.26875L12.6094 3.94687C12.7065 3.91764 12.8085 3.9084 12.9092 3.91971C13.01 3.93102 13.1074 3.96264 13.1956 4.01266C13.2838 4.06268 13.3609 4.13006 13.4223 4.21074C13.4838 4.29141 13.5282 4.3837 13.5529 4.48203C13.5777 4.58035 13.5822 4.68268 13.5663 4.78281C13.5504 4.88294 13.5143 4.97881 13.4603 5.06461C13.4063 5.15042 13.3354 5.22438 13.252 5.28202C13.1686 5.33967 13.0744 5.3798 12.975 5.4L8.25 6.58125V9.54375L14.7281 7.92188C14.8252 7.89264 14.9272 7.8834 15.028 7.89471C15.1287 7.90602 15.2262 7.93764 15.3144 7.98766C15.4025 8.03768 15.4797 8.10506 15.5411 8.18574C15.6025 8.26641 15.6469 8.3587 15.6717 8.45703C15.6964 8.55535 15.701 8.65768 15.685 8.75781C15.6691 8.85794 15.6331 8.95381 15.579 9.03961C15.525 9.12542 15.4542 9.19938 15.3708 9.25702C15.2873 9.31467 15.1931 9.3548 15.0938 9.375L8.25 11.0812ZM6.75 19.125C6.75 18.7542 6.64003 18.3916 6.43401 18.0833C6.22798 17.775 5.93514 17.5346 5.59253 17.3927C5.24992 17.2508 4.87292 17.2137 4.50921 17.286C4.14549 17.3584 3.8114 17.537 3.54918 17.7992C3.28695 18.0614 3.10838 18.3955 3.03603 18.7592C2.96368 19.1229 3.00081 19.4999 3.14273 19.8425C3.28464 20.1851 3.52497 20.478 3.83331 20.684C4.14165 20.89 4.50416 21 4.875 21C5.37152 20.9975 5.84701 20.7992 6.1981 20.4481C6.5492 20.097 6.74754 19.6215 6.75 19.125Z" fill="black"/>
  </symbol>

  <symbol id="text" viewBox="0 0 24 24">
    <path d="M3 7V5H16V7M10 5V19M12 19H8M15 13V12H21V13M18 12V19M17 19H19" stroke="black" stroke-width="2" stroke-linecap="round" stroke-linejoin="round"/>
  </symbol>

  <symbol id="close" viewBox="0 0 24 24">
    <path d="M18.3002 5.70998C18.2077 5.61728 18.0978 5.54373 17.9768 5.49355C17.8559 5.44337 17.7262 5.41754 17.5952 5.41754C17.4643 5.41754 17.3346 5.44337 17.2136 5.49355C17.0926 5.54373 16.9827 5.61728 16.8902 5.70998L12.0002 10.59L7.11022 5.69998C7.01764 5.6074 6.90773 5.53396 6.78677 5.48385C6.6658 5.43375 6.53615 5.40796 6.40522 5.40796C6.27429 5.40796 6.14464 5.43375 6.02368 5.48385C5.90272 5.53396 5.79281 5.6074 5.70022 5.69998C5.60764 5.79256 5.5342 5.90247 5.4841 6.02344C5.43399 6.1444 5.4082 6.27405 5.4082 6.40498C5.4082 6.53591 5.43399 6.66556 5.4841 6.78652C5.5342 6.90749 5.60764 7.0174 5.70022 7.10998L10.5902 12L5.70022 16.89C5.60764 16.9826 5.5342 17.0925 5.4841 17.2134C5.43399 17.3344 5.4082 17.464 5.4082 17.595C5.4082 17.7259 5.43399 17.8556 5.4841 17.9765C5.5342 18.0975 5.60764 18.2074 5.70022 18.3C5.79281 18.3926 5.90272 18.466 6.02368 18.5161C6.14464 18.5662 6.27429 18.592 6.40522 18.592C6.53615 18.592 6.6658 18.5662 6.78677 18.5161C6.90773 18.466 7.01764 18.3926 7.11022 18.3L12.0002 13.41L16.8902 18.3C16.9828 18.3926 17.0927 18.466 17.2137 18.5161C17.3346 18.5662 17.4643 18.592 17.5952 18.592C17.7262 18.592 17.8558 18.5662 17.9768 18.5161C18.0977 18.466 18.2076 18.3926 18.3002 18.3C18.3928 18.2074 18.4662 18.0975 18.5163 17.9765C18.5665 17.8556 18.5922 17.7259 18.5922 17.595C18.5922 17.464 18.5665 17.3344 18.5163 17.2134C18.4662 17.0925 18.3928 16.9826 18.3002 16.89L13.4102 12L18.3002 7.10998C18.6802 6.72998 18.6802 6.08998 18.3002 5.70998Z" fill="black"/>
  </symbol>


</svg>
